<svg width="216" height="32" viewBox="0 0 216 32" fill="none" xmlns="http://www.w3.org/2000/svg">
<path d="M0.880005 31V30.6L1.72 30.28C2.28 30.0667 2.62667 29.8133 2.76 29.52C2.92 29.2 3.00001 28.7733 3.00001 28.24V7.35999C3.00001 6.82666 2.92 6.4 2.76 6.07999C2.6 5.75999 2.25334 5.50666 1.72 5.31999L0.880005 4.99999V4.59999H11.08V4.99999L10.36 5.31999C9.85334 5.50666 9.50667 5.77333 9.32001 6.11999C9.13334 6.43999 9.04001 6.86666 9.04001 7.39999V30.2H15.2C16.1867 30.2 16.9067 29.96 17.36 29.48C17.84 29 18.2933 28.3067 18.72 27.4L20.28 24.04H20.68L20.32 31H0.880005Z" fill="#141414"/>
<path d="M28.9775 31.6C27.9375 31.6 26.9775 31.4 26.0975 31C25.2442 30.6 24.5642 29.96 24.0575 29.08C23.5775 28.1733 23.3508 26.9867 23.3775 25.52L23.4975 15.24C23.4975 14.6267 23.3908 14.1867 23.1775 13.92C22.9642 13.6533 22.6308 13.4667 22.1775 13.36L21.6975 13.2V12.8L28.8575 11.4L29.2575 11.8L29.0575 17.48V27.12C29.0575 27.9733 29.2975 28.6 29.7775 29C30.2842 29.4 30.9108 29.6 31.6575 29.6C32.4042 29.6 33.0708 29.4933 33.6575 29.28C34.2442 29.0667 34.8308 28.7467 35.4175 28.32L35.5775 15.28C35.5775 14.6667 35.4842 14.24 35.2975 14C35.1108 13.7333 34.7642 13.5467 34.2575 13.44L33.8575 13.32V12.92L40.8575 11.4L41.2575 11.8L41.1375 17.48V28.32C41.1375 28.9067 41.2175 29.36 41.3775 29.68C41.5375 30 41.8842 30.2667 42.4175 30.48L42.8175 30.6V31L35.8175 31.4L35.4575 29.04C34.5775 29.76 33.6175 30.3733 32.5775 30.88C31.5642 31.36 30.3642 31.6 28.9775 31.6Z" fill="#141414"/>
<path d="M44.5128 31V30.6L45.0728 30.44C45.6062 30.28 45.9662 30.04 46.1528 29.72C46.3395 29.4 46.4328 28.9733 46.4328 28.44C46.4328 27.5067 46.4328 26.5067 46.4328 25.44C46.4595 24.3467 46.4728 23.4 46.4728 22.6V20.68C46.4728 19.8533 46.4595 19.08 46.4328 18.36C46.4328 17.6133 46.4328 16.8 46.4328 15.92C46.4061 15.36 46.2995 14.9467 46.1128 14.68C45.9528 14.3867 45.6062 14.1867 45.0728 14.08L44.5128 13.96V13.56L51.8328 11.2L52.2328 11.6L52.1128 17.28V28.48C52.1395 29.0133 52.2462 29.44 52.4328 29.76C52.6195 30.08 52.9661 30.32 53.4728 30.48L53.8728 30.6V31H44.5128ZM46.7928 8.08C47.1661 7.38666 47.5928 6.61333 48.0728 5.75999C48.5528 4.87999 49.1261 3.81333 49.7928 2.55999C50.2461 1.70666 50.6861 1.09333 51.1128 0.719995C51.5395 0.319995 52.0328 0.119995 52.5928 0.119995C53.0995 0.119995 53.5395 0.293328 53.9128 0.639993C54.2862 0.959994 54.4728 1.35999 54.4728 1.83999C54.4728 2.34666 54.2995 2.82666 53.9528 3.27999C53.6062 3.70666 53.0195 4.21333 52.1928 4.79999C51.0462 5.6 50.0861 6.30666 49.3128 6.91999C48.5395 7.50666 47.8462 8.02666 47.2328 8.47999L46.7928 8.08Z" fill="#141414"/>
<path d="M62.5638 31.6C61.2571 31.6 60.0838 31.44 59.0438 31.12C58.0038 30.8267 57.0438 30.4533 56.1638 30L56.2038 25.24H56.6038L57.9638 27.64C58.5504 28.7067 59.1904 29.5067 59.8838 30.04C60.6038 30.5467 61.5104 30.8 62.6038 30.8C63.8838 30.8 64.9104 30.52 65.6838 29.96C66.4838 29.3733 66.8838 28.6 66.8838 27.64C66.8838 26.76 66.6038 26.04 66.0438 25.48C65.4838 24.92 64.4438 24.4133 62.9238 23.96L61.2438 23.44C59.6171 22.96 58.3371 22.2133 57.4038 21.2C56.4704 20.1867 56.0038 18.9467 56.0038 17.48C56.0038 15.72 56.6971 14.2267 58.0838 13C59.4704 11.7733 61.4571 11.16 64.0438 11.16C65.0838 11.16 66.0571 11.28 66.9638 11.52C67.8971 11.7333 68.7904 12.0667 69.6438 12.52L69.4038 16.84H69.0038L67.6038 14.36C67.0971 13.48 66.5904 12.8667 66.0838 12.52C65.6038 12.1467 64.8704 11.96 63.8838 11.96C62.9771 11.96 62.1238 12.2133 61.3238 12.72C60.5238 13.2267 60.1238 13.9467 60.1238 14.88C60.1238 15.7867 60.4571 16.5067 61.1238 17.04C61.8171 17.5733 62.8304 18.0667 64.1638 18.52L65.9638 19.04C67.8838 19.6267 69.2571 20.44 70.0838 21.48C70.9104 22.4933 71.3238 23.72 71.3238 25.16C71.3238 27.1067 70.5504 28.6667 69.0038 29.84C67.4838 31.0133 65.3371 31.6 62.5638 31.6Z" fill="#141414"/>
<path d="M81.2966 31V30.6L82.2966 30.24C82.8299 30.0267 83.2432 29.7733 83.5366 29.48C83.8299 29.16 84.0699 28.72 84.2566 28.16L92.4966 4.51999H95.8966L104.017 28.32C104.23 28.9067 104.47 29.36 104.737 29.68C105.003 29.9733 105.417 30.2267 105.977 30.44L106.457 30.6V31H96.2966V30.6L96.8966 30.4C97.4566 30.1867 97.7899 29.8933 97.8966 29.52C98.0299 29.12 98.0166 28.6533 97.8566 28.12L95.9766 22.36H87.0966L85.1766 28C84.9899 28.5867 84.9232 29.0533 84.9766 29.4C85.0566 29.7467 85.3766 30.0267 85.9366 30.24L86.8166 30.6V31H81.2966ZM87.3766 21.56H95.7366L91.6966 9.11999L87.3766 21.56Z" fill="#141414"/>
<path d="M107.912 31V30.6L108.392 30.44C109.352 30.12 109.832 29.4533 109.832 28.44V7.03999C109.832 6.50666 109.726 6.10666 109.512 5.84C109.299 5.54666 108.926 5.33333 108.392 5.19999L107.872 5.08V4.67999L115.192 2.95999L115.672 3.31999L115.512 8.91999V22.6C115.512 23.5867 115.512 24.5733 115.512 25.56C115.539 26.52 115.552 27.48 115.552 28.44C115.552 28.9733 115.659 29.4133 115.872 29.76C116.086 30.08 116.446 30.32 116.952 30.48L117.472 30.6V31H107.912Z" fill="#141414"/>
<path d="M126.078 31.52L119.318 31V30.6L119.718 30.52C120.758 30.28 121.278 29.6133 121.278 28.52V7.12C121.278 6.55999 121.184 6.13333 120.998 5.84C120.838 5.54666 120.491 5.34666 119.958 5.23999L119.398 5.08V4.67999L126.518 2.95999L126.998 3.31999L126.838 8.96V13C127.718 12.3867 128.677 11.9333 129.717 11.64C130.757 11.32 131.811 11.16 132.878 11.16C134.398 11.16 135.744 11.52 136.918 12.24C138.091 12.9333 139.011 14.0267 139.678 15.52C140.371 16.9867 140.718 18.88 140.718 21.2C140.718 23.52 140.331 25.4533 139.558 27C138.811 28.52 137.798 29.6667 136.518 30.44C135.264 31.2133 133.877 31.6 132.357 31.6C131.371 31.6 130.371 31.4667 129.357 31.2C128.371 30.9333 127.491 30.56 126.718 30.08L126.078 31.52ZM130.357 30.24C131.211 30.24 131.958 29.9733 132.598 29.44C133.238 28.9067 133.744 28 134.118 26.72C134.491 25.4133 134.678 23.6267 134.678 21.36C134.678 19.0933 134.504 17.3467 134.158 16.12C133.811 14.8933 133.318 14.04 132.678 13.56C132.064 13.08 131.317 12.84 130.438 12.84C129.184 12.84 128.024 13.1867 126.958 13.88V29.24C127.464 29.56 127.984 29.8133 128.518 30C129.051 30.16 129.664 30.24 130.357 30.24Z" fill="#141414"/>
<path d="M152.754 11.16C154.487 11.16 155.967 11.52 157.194 12.24C158.421 12.9333 159.354 13.8933 159.994 15.12C160.661 16.32 160.994 17.6933 160.994 19.24C160.994 19.5333 160.981 19.84 160.954 20.16C160.927 20.4533 160.874 20.72 160.794 20.96H148.874C148.901 23.84 149.407 25.92 150.394 27.2C151.407 28.4533 152.901 29.08 154.874 29.08C156.207 29.08 157.287 28.8667 158.114 28.44C158.941 28.0133 159.714 27.3867 160.434 26.56L160.834 26.92C160.007 28.3867 158.901 29.5333 157.514 30.36C156.154 31.1867 154.514 31.6 152.594 31.6C150.701 31.6 149.021 31.2 147.554 30.4C146.087 29.5733 144.941 28.4 144.114 26.88C143.287 25.36 142.874 23.5467 142.874 21.44C142.874 19.2533 143.354 17.4 144.314 15.88C145.274 14.3333 146.501 13.16 147.994 12.36C149.514 11.56 151.101 11.16 152.754 11.16ZM152.634 11.96C151.861 11.96 151.194 12.2 150.634 12.68C150.101 13.1333 149.674 13.96 149.354 15.16C149.061 16.3333 148.901 18 148.874 20.16H155.714C155.981 17.2533 155.874 15.16 155.394 13.88C154.914 12.6 153.994 11.96 152.634 11.96Z" fill="#141414"/>
<path d="M162.988 31V30.6L163.588 30.44C164.121 30.28 164.481 30.04 164.668 29.72C164.881 29.4 164.988 28.9867 164.988 28.48V15.96C164.988 15.3733 164.881 14.9467 164.668 14.68C164.481 14.3867 164.121 14.1867 163.588 14.08L162.988 13.92V13.52L169.868 11.2L170.268 11.6L170.628 15.04V15.36C171.001 14.6133 171.481 13.9333 172.068 13.32C172.681 12.68 173.348 12.16 174.068 11.76C174.814 11.36 175.548 11.16 176.268 11.16C177.281 11.16 178.054 11.44 178.588 12C179.121 12.56 179.388 13.2667 179.388 14.12C179.388 15.0267 179.121 15.7333 178.588 16.24C178.081 16.72 177.468 16.96 176.748 16.96C175.628 16.96 174.641 16.4 173.788 15.28L173.708 15.2C173.441 14.8267 173.134 14.6267 172.788 14.6C172.441 14.5467 172.121 14.7067 171.827 15.08C171.561 15.32 171.334 15.6133 171.148 15.96C170.988 16.28 170.828 16.6533 170.668 17.08V28.24C170.668 29.3067 171.134 29.9733 172.068 30.24L173.348 30.6V31H162.988Z" fill="#141414"/>
<path d="M188.595 31.6C186.889 31.6 185.555 31.1733 184.595 30.32C183.662 29.4667 183.195 28.1067 183.195 26.24V12.56H180.435V12.16L181.395 12C182.222 11.8133 182.929 11.5467 183.515 11.2C184.129 10.8533 184.729 10.3867 185.315 9.79999L188.595 6.15999H188.995L188.875 11.76H193.355V12.56H188.835V26.96C188.835 27.8933 189.035 28.6 189.435 29.08C189.862 29.56 190.395 29.8 191.035 29.8C191.595 29.8 192.089 29.6667 192.515 29.4C192.942 29.1067 193.369 28.72 193.795 28.24L194.195 28.64C193.662 29.5467 192.929 30.2667 191.995 30.8C191.062 31.3333 189.929 31.6 188.595 31.6Z" fill="#141414"/>
<path d="M205.451 31.6C203.425 31.6 201.665 31.1867 200.171 30.36C198.678 29.5067 197.518 28.3067 196.691 26.76C195.891 25.2133 195.491 23.4 195.491 21.32C195.491 19.24 195.918 17.44 196.771 15.92C197.651 14.4 198.838 13.2267 200.331 12.4C201.851 11.5733 203.558 11.16 205.451 11.16C207.345 11.16 209.038 11.5733 210.531 12.4C212.025 13.2 213.198 14.36 214.051 15.88C214.931 17.4 215.371 19.2133 215.371 21.32C215.371 23.4267 214.958 25.2533 214.131 26.8C213.331 28.32 212.185 29.5067 210.691 30.36C209.225 31.1867 207.478 31.6 205.451 31.6ZM205.451 30.8C206.385 30.8 207.131 30.5333 207.691 30C208.251 29.4667 208.651 28.52 208.891 27.16C209.158 25.8 209.291 23.88 209.291 21.4C209.291 18.8933 209.158 16.96 208.891 15.6C208.651 14.24 208.251 13.2933 207.691 12.76C207.131 12.2267 206.385 11.96 205.451 11.96C204.518 11.96 203.758 12.2267 203.171 12.76C202.611 13.2933 202.198 14.24 201.931 15.6C201.691 16.96 201.571 18.8933 201.571 21.4C201.571 23.88 201.691 25.8 201.931 27.16C202.198 28.52 202.611 29.4667 203.171 30C203.758 30.5333 204.518 30.8 205.451 30.8Z" fill="#141414"/>
</svg>
